<svg width="12" height="12" viewBox="0 0 12 12" fill="none" xmlns="http://www.w3.org/2000/svg">
<path d="M8.62501 0C8.57851 0 4.125 0 4.125 0C3.33149 0 2.62501 0.72788 2.62501 1.50001L2.1915 1.51013C1.39838 1.51013 0.75 2.22787 0.75 3V10.5C0.75 11.2721 1.4565 12 2.25001 12H7.87501C8.6685 12 9.375 11.2721 9.375 10.5H9.75C10.5435 10.5 11.25 9.77215 11.25 9.00002V3.00901L8.62501 0ZM7.87501 11.25H2.25001C1.85626 11.25 1.50001 10.8822 1.50001 10.5V3C1.50001 2.61788 1.82064 2.26237 2.21439 2.26237L2.62501 2.25V9.00002C2.62501 9.77215 3.33149 10.5 4.125 10.5H8.62501C8.62501 10.8821 8.26874 11.25 7.87501 11.25ZM10.5 9.00002C10.5 9.38212 10.1438 9.75 9.75 9.75H4.125C3.73125 9.75 3.375 9.38214 3.375 9.00002V1.50001C3.375 1.11789 3.73125 0.750013 4.125 0.750013H7.87501C7.86899 1.61364 7.87501 2.25939 7.87501 2.25939C7.87501 3.03864 8.57625 3.75001 9.375 3.75001C9.375 3.75001 9.77327 3.75001 10.5 3.75001V9.00002ZM9.375 3C8.97564 3 8.62501 2.27438 8.62501 1.88513C8.62501 1.88513 8.62501 1.49062 8.62501 0.761628V0.760873L10.5 3H9.375ZM8.62501 5.25676H5.25001C5.04301 5.25676 4.87501 5.42439 4.87501 5.63138C4.87501 5.83838 5.04301 6.006 5.25001 6.006H8.62501C8.832 6.006 9.00001 5.83837 9.00001 5.63138C9.00001 5.42439 8.832 5.25676 8.62501 5.25676ZM8.62501 7.12988H5.25001C5.04301 7.12988 4.87501 7.29751 4.87501 7.50449C4.87501 7.7115 5.04301 7.87912 5.25001 7.87912H8.62501C8.832 7.87912 9.00001 7.7115 9.00001 7.50449C9.00001 7.29751 8.832 7.12988 8.62501 7.12988Z" fill="#DE0FC5"/>
</svg>
